<mxfile host="app.diagrams.net" modified="2024-04-10T06:28:24.675Z" agent="Mozilla/5.0 (Windows NT 10.0; Win64; x64) AppleWebKit/537.36 (KHTML, like Gecko) Chrome/123.0.0.0 Safari/537.36" version="24.2.3" etag="gTuN-6XwNHc_Am9q6agn" type="github">
  <diagram name="Page-1" id="tMYw_frp5ZRqb69M6NC7">
    <mxGraphModel>
      <root>
        <mxCell id="0" />
        <mxCell id="1" parent="0" />
      </root>
    </mxGraphModel>
  </diagram>
</mxfile>
